<svg width="1920" height="1080" viewBox="0 0 1920 1080" fill="none" xmlns="http://www.w3.org/2000/svg">
<g clip-path="url(#clip0_1_2)">
<rect width="1920" height="1080" fill="#16171C"/>
<g filter="url(#filter0_f_1_2)">
<path d="M86 287.5C100 366.5 6.49998 346 -52 343.5C-55.6667 341.167 -78.1 344 -138.5 374C-214 411.5 -112 481.5 -25.5 587C61 692.5 86 617.5 219.5 535.5C353 453.5 307.5 456 410.5 402C513.5 348 516 336.5 633 324C750 311.5 682 388 696 506.5C710 625 558 578.5 481.5 587C405 595.5 335 673.5 242 773.5C149 873.5 247.5 914.5 410.5 964.5C573.5 1014.5 591.5 918.5 668 804.5C744.5 690.5 740.5 700 793.5 545.5C846.5 391 938 453.5 1031.5 494C1125 534.5 1007.5 617.5 949 700C890.5 782.5 817 803 772.5 878C728 953 831 1048 988 1080C1145 1112 1044 1048 1044 936.5C1044 825 1077.5 843.5 1187.5 683C1297.5 522.5 1358.5 617.5 1335 650C1311.5 682.5 1296 704 1297.5 793C1299 882 1507.5 837.5 1581.5 617.5C1545.5 465.5 1640 555 1737.5 517.5C1835 480 1789 540 1886.5 517.5C1984 495 1945 509 2011.5 420C2078 331 2016 368.5 1945 183.5C1874 -1.5 1711 150 1711 203C1711 256 1737.5 304.5 1701 388C1664.5 471.5 1545 407.5 1525.5 481.5C1506 555.5 1401.5 540 1251.5 526C1101.5 512 1056.5 396.5 1149.5 336.5C1242.5 276.5 1266.5 287.5 1374 175C1481.5 62.5001 1425.5 44 1266.5 -41C1107.5 -126 1069 -36.5 1044 31.5C1019 99.5 1005 201.5 938 264C871 326.5 776.5 313 715.5 215.5C654.5 118 693 115 682 3.50005C671 -108 526 -65.9999 471.5 -22.9999C417 20.0001 463.5 55.0001 437 125C410.5 195 318.5 201.5 278 190.5C237.5 179.5 208.5 130.5 147 91.5001C85.5 52.5001 43 148.5 37 175C31 201.5 72 208.5 86 287.5Z" fill="white" fill-opacity="0.05"/>
</g>
</g>
<defs>
<filter id="filter0_f_1_2" x="-264.868" y="-175.704" width="2404.75" height="1363.94" filterUnits="userSpaceOnUse" color-interpolation-filters="sRGB">
<feFlood flood-opacity="0" result="BackgroundImageFix"/>
<feBlend mode="normal" in="SourceGraphic" in2="BackgroundImageFix" result="shape"/>
<feGaussianBlur stdDeviation="50" result="effect1_foregroundBlur_1_2"/>
</filter>
<clipPath id="clip0_1_2">
<rect width="1920" height="1080" fill="white"/>
</clipPath>
</defs>
</svg>
